<svg xmlns="http://www.w3.org/2000/svg" width="750" height="750"><rect width="750" height="750" fill="#02050a"/><g transform="translate(79.43 506.47)"><circle cx="0" cy="0" r="108.97" fill="#003388"/><circle cx="24.42" cy="18.11" r="70.97" fill="#001533"/><circle cx="39.39" cy="29.22" r="47.67" fill="#02050a"/></g><g transform="translate(829.43 506.47)"><circle cx="0" cy="0" r="108.97" fill="#003388"/><circle cx="24.42" cy="18.11" r="70.97" fill="#001533"/><circle cx="39.39" cy="29.22" r="47.67" fill="#02050a"/></g><g transform="translate(230.33 673.79)"><circle cx="0" cy="0" r="112.74" fill="#007ba7"/><circle cx="24.32" cy="18.22" r="74.76" fill="#02050a"/><circle cx="40.61" cy="30.43" r="49.31" fill="#001533"/></g><g transform="translate(230.33 -76.21)"><circle cx="0" cy="0" r="112.74" fill="#007ba7"/><circle cx="24.32" cy="18.22" r="74.76" fill="#02050a"/><circle cx="40.61" cy="30.43" r="49.31" fill="#001533"/></g><g transform="translate(569.13 609.49)"><circle cx="0" cy="0" r="123.93" fill="#001533"/><circle cx="25.72" cy="-21.39" r="82.12" fill="#02050a"/><circle cx="40.92" cy="-34.03" r="57.4" fill="#003388"/></g><g transform="translate(560.92 369.04)"><circle cx="0" cy="0" r="121.24" fill="#007ba7"/><circle cx="-1.07" cy="-32.21" r="80.96" fill="#02050a"/><circle cx="-1.72" cy="-51.69" r="56.59" fill="#003388"/></g><g transform="translate(291.78 199.69)"><circle cx="0" cy="0" r="101.8" fill="#003388"/><circle cx="26.02" cy="7.34" r="68.01" fill="#02050a"/><circle cx="42.76" cy="12.06" r="46.27" fill="#001533"/></g><g transform="translate(383.25 124.34)"><circle cx="0" cy="0" r="115.56" fill="#001533"/><circle cx="31.7" cy="-0.88" r="75.92" fill="#02050a"/><circle cx="50.4" cy="-1.4" r="52.53" fill="#007ba7"/></g><g transform="translate(440.32 694.06)"><circle cx="0" cy="0" r="105.04" fill="#003388"/><circle cx="6.15" cy="24.77" r="73.13" fill="#007ba7"/><circle cx="10.49" cy="42.28" r="50.58" fill="#02050a"/></g><g transform="translate(440.32 -55.94)"><circle cx="0" cy="0" r="105.04" fill="#003388"/><circle cx="6.15" cy="24.77" r="73.13" fill="#007ba7"/><circle cx="10.49" cy="42.28" r="50.58" fill="#02050a"/></g><g transform="translate(162.62 307.07)"><circle cx="0" cy="0" r="104.21" fill="#02050a"/><circle cx="-14.1" cy="23.22" r="70.25" fill="#007ba7"/><circle cx="-23.42" cy="38.56" r="47.82" fill="#001533"/></g><g transform="translate(682.71 532.02)"><circle cx="0" cy="0" r="102.43" fill="#003388"/><circle cx="4.42" cy="27.35" r="67.79" fill="#007ba7"/><circle cx="7.1" cy="43.99" r="46.73" fill="#001533"/></g><g transform="translate(-67.29 532.02)"><circle cx="0" cy="0" r="102.43" fill="#003388"/><circle cx="4.42" cy="27.35" r="67.79" fill="#007ba7"/><circle cx="7.1" cy="43.99" r="46.73" fill="#001533"/></g><g transform="translate(26.06 359.81)"><circle cx="0" cy="0" r="107.12" fill="#001533"/><circle cx="-28.96" cy="-3.84" r="70.6" fill="#02050a"/><circle cx="-46.61" cy="-6.19" r="48.35" fill="#007ba7"/></g><g transform="translate(776.06 359.81)"><circle cx="0" cy="0" r="107.12" fill="#001533"/><circle cx="-28.96" cy="-3.84" r="70.6" fill="#02050a"/><circle cx="-46.61" cy="-6.19" r="48.35" fill="#007ba7"/></g><g transform="translate(221.87 81.39)"><circle cx="0" cy="0" r="114.97" fill="#007ba7"/><circle cx="-30.09" cy="10.53" r="75.13" fill="#02050a"/><circle cx="-47.75" cy="16.7" r="51.74" fill="#003388"/></g><g transform="translate(221.87 831.39)"><circle cx="0" cy="0" r="114.97" fill="#007ba7"/><circle cx="-30.09" cy="10.53" r="75.13" fill="#02050a"/><circle cx="-47.75" cy="16.7" r="51.74" fill="#003388"/></g><g transform="translate(704.71 91.44)"><circle cx="0" cy="0" r="115.41" fill="#003388"/><circle cx="4.72" cy="28.16" r="79.71" fill="#001533"/><circle cx="7.9" cy="47.07" r="55.74" fill="#02050a"/></g><g transform="translate(-45.29 91.44)"><circle cx="0" cy="0" r="115.41" fill="#003388"/><circle cx="4.72" cy="28.16" r="79.71" fill="#001533"/><circle cx="7.9" cy="47.07" r="55.74" fill="#02050a"/></g><g transform="translate(704.71 841.44)"><circle cx="0" cy="0" r="115.41" fill="#003388"/><circle cx="4.72" cy="28.16" r="79.71" fill="#001533"/><circle cx="7.9" cy="47.07" r="55.74" fill="#02050a"/></g><g transform="translate(-45.29 841.44)"><circle cx="0" cy="0" r="115.41" fill="#003388"/><circle cx="4.72" cy="28.16" r="79.71" fill="#001533"/><circle cx="7.9" cy="47.07" r="55.74" fill="#02050a"/></g><g transform="translate(556.59 134.26)"><circle cx="0" cy="0" r="110.15" fill="#02050a"/><circle cx="-24.8" cy="-18.24" r="71.66" fill="#007ba7"/><circle cx="-39.7" cy="-29.2" r="48.54" fill="#001533"/></g><g transform="translate(608.79 243.93)"><circle cx="0" cy="0" r="110.67" fill="#001533"/><circle cx="7.76" cy="-27.59" r="74.85" fill="#007ba7"/><circle cx="12.76" cy="-45.34" r="51.8" fill="#003388"/></g><g transform="translate(1.14 654.36)"><circle cx="0" cy="0" r="105.99" fill="#003388"/><circle cx="-25.83" cy="-10.09" r="71.33" fill="#02050a"/><circle cx="-43.89" cy="-17.15" r="47.08" fill="#007ba7"/></g><g transform="translate(751.14 654.36)"><circle cx="0" cy="0" r="105.99" fill="#003388"/><circle cx="-25.83" cy="-10.09" r="71.33" fill="#02050a"/><circle cx="-43.89" cy="-17.15" r="47.08" fill="#007ba7"/></g><g transform="translate(1.14 -95.64)"><circle cx="0" cy="0" r="105.99" fill="#003388"/><circle cx="-25.83" cy="-10.09" r="71.33" fill="#02050a"/><circle cx="-43.89" cy="-17.15" r="47.08" fill="#007ba7"/></g><g transform="translate(751.14 -95.64)"><circle cx="0" cy="0" r="105.99" fill="#003388"/><circle cx="-25.83" cy="-10.09" r="71.33" fill="#02050a"/><circle cx="-43.89" cy="-17.15" r="47.08" fill="#007ba7"/></g><g transform="translate(72.8 158.15)"><circle cx="0" cy="0" r="119.91" fill="#007ba7"/><circle cx="30.24" cy="-4.8" r="81.63" fill="#001533"/><circle cx="51.29" cy="-8.14" r="54.99" fill="#02050a"/></g><g transform="translate(822.8 158.15)"><circle cx="0" cy="0" r="119.91" fill="#007ba7"/><circle cx="30.24" cy="-4.8" r="81.63" fill="#001533"/><circle cx="51.29" cy="-8.14" r="54.99" fill="#02050a"/></g><g transform="translate(114.94 744.85)"><circle cx="0" cy="0" r="118.31" fill="#02050a"/><circle cx="29.43" cy="12.09" r="78.54" fill="#003388"/><circle cx="46.93" cy="19.28" r="54.89" fill="#001533"/></g><g transform="translate(864.94 744.85)"><circle cx="0" cy="0" r="118.31" fill="#02050a"/><circle cx="29.43" cy="12.09" r="78.54" fill="#003388"/><circle cx="46.93" cy="19.28" r="54.89" fill="#001533"/></g><g transform="translate(114.94 -5.15)"><circle cx="0" cy="0" r="118.31" fill="#02050a"/><circle cx="29.43" cy="12.09" r="78.54" fill="#003388"/><circle cx="46.93" cy="19.28" r="54.89" fill="#001533"/></g><g transform="translate(864.94 -5.15)"><circle cx="0" cy="0" r="118.31" fill="#02050a"/><circle cx="29.43" cy="12.09" r="78.54" fill="#003388"/><circle cx="46.93" cy="19.28" r="54.89" fill="#001533"/></g><g transform="translate(456.21 466.22)"><circle cx="0" cy="0" r="114.42" fill="#001533"/><circle cx="-28.5" cy="-9.23" r="76.98" fill="#003388"/><circle cx="-47.28" cy="-15.32" r="52.29" fill="#007ba7"/></g><g transform="translate(346.07 313.04)"><circle cx="0" cy="0" r="114.61" fill="#007ba7"/><circle cx="-20.94" cy="-22.65" r="76.06" fill="#003388"/><circle cx="-33.96" cy="-36.73" r="52.08" fill="#02050a"/></g><g transform="translate(540.67 741.59)"><circle cx="0" cy="0" r="106.86" fill="#02050a"/><circle cx="-3.28" cy="25.78" r="74.38" fill="#001533"/><circle cx="-5.82" cy="45.72" r="49.25" fill="#003388"/></g><g transform="translate(540.67 -8.41)"><circle cx="0" cy="0" r="106.86" fill="#02050a"/><circle cx="-3.28" cy="25.78" r="74.38" fill="#001533"/><circle cx="-5.82" cy="45.72" r="49.25" fill="#003388"/></g><g transform="translate(233.63 552.01)"><circle cx="0" cy="0" r="101.65" fill="#003388"/><circle cx="3.49" cy="-25.33" r="69.69" fill="#001533"/><circle cx="6.1" cy="-44.2" r="45.88" fill="#007ba7"/></g><g transform="translate(500.77 264.75)"><circle cx="0" cy="0" r="107.46" fill="#007ba7"/><circle cx="-25.46" cy="-15.91" r="69.93" fill="#02050a"/><circle cx="-40.42" cy="-25.26" r="47.88" fill="#001533"/></g><g transform="translate(328.25 469.8)"><circle cx="0" cy="0" r="120.05" fill="#001533"/><circle cx="26.36" cy="12.9" r="83.37" fill="#003388"/><circle cx="45.28" cy="22.15" r="57.04" fill="#02050a"/></g><g transform="translate(437.49 579.52)"><circle cx="0" cy="0" r="110.69" fill="#02050a"/><circle cx="-21.64" cy="20.29" r="73.61" fill="#007ba7"/><circle cx="-34.63" cy="32.47" r="51.35" fill="#003388"/></g><g transform="translate(328.18 609.81)"><circle cx="0" cy="0" r="106.85" fill="#003388"/><circle cx="28.68" cy="3.6" r="70.72" fill="#007ba7"/><circle cx="46.77" cy="5.87" r="47.92" fill="#001533"/></g><g transform="translate(204.53 432.23)"><circle cx="0" cy="0" r="118.59" fill="#001533"/><circle cx="27.02" cy="18.22" r="77.86" fill="#02050a"/><circle cx="42.96" cy="28.96" r="53.83" fill="#007ba7"/></g><g transform="translate(341.16 13.14)"><circle cx="0" cy="0" r="111.8" fill="#007ba7"/><circle cx="-17.56" cy="-23.83" r="74.79" fill="#003388"/><circle cx="-29.9" cy="-40.58" r="48.79" fill="#02050a"/></g><g transform="translate(341.16 763.14)"><circle cx="0" cy="0" r="111.8" fill="#007ba7"/><circle cx="-17.56" cy="-23.83" r="74.79" fill="#003388"/><circle cx="-29.9" cy="-40.58" r="48.79" fill="#02050a"/></g><g transform="translate(508.29 445.37)"><circle cx="0" cy="0" r="124.98" fill="#02050a"/><circle cx="16.27" cy="-29.49" r="82.87" fill="#003388"/><circle cx="25.96" cy="-47.04" r="57.81" fill="#001533"/></g><g transform="translate(58.97 71.95)"><circle cx="0" cy="0" r="120.98" fill="#007ba7"/><circle cx="11.34" cy="30.27" r="80.58" fill="#003388"/><circle cx="18.8" cy="50.17" r="54.01" fill="#001533"/></g><g transform="translate(808.97 71.95)"><circle cx="0" cy="0" r="120.98" fill="#007ba7"/><circle cx="11.34" cy="30.27" r="80.58" fill="#003388"/><circle cx="18.8" cy="50.17" r="54.01" fill="#001533"/></g><g transform="translate(58.97 821.95)"><circle cx="0" cy="0" r="120.98" fill="#007ba7"/><circle cx="11.34" cy="30.27" r="80.58" fill="#003388"/><circle cx="18.8" cy="50.17" r="54.01" fill="#001533"/></g><g transform="translate(808.97 821.95)"><circle cx="0" cy="0" r="120.98" fill="#007ba7"/><circle cx="11.34" cy="30.27" r="80.58" fill="#003388"/><circle cx="18.8" cy="50.17" r="54.01" fill="#001533"/></g><g transform="translate(734.98 248.79)"><circle cx="0" cy="0" r="120.95" fill="#001533"/><circle cx="2.16" cy="32.44" r="80.31" fill="#003388"/><circle cx="3.56" cy="53.37" r="54.08" fill="#02050a"/></g><g transform="translate(-15.02 248.79)"><circle cx="0" cy="0" r="120.95" fill="#001533"/><circle cx="2.16" cy="32.44" r="80.31" fill="#003388"/><circle cx="3.56" cy="53.37" r="54.08" fill="#02050a"/></g><g transform="translate(594.19 105.13)"><circle cx="0" cy="0" r="122.91" fill="#02050a"/><circle cx="26.65" cy="-14.29" r="85.12" fill="#003388"/><circle cx="47.41" cy="-25.42" r="55.66" fill="#007ba7"/></g><g transform="translate(594.19 855.13)"><circle cx="0" cy="0" r="122.91" fill="#02050a"/><circle cx="26.65" cy="-14.29" r="85.12" fill="#003388"/><circle cx="47.41" cy="-25.42" r="55.66" fill="#007ba7"/></g><g transform="translate(115 204.33)"><circle cx="0" cy="0" r="121.05" fill="#007ba7"/><circle cx="-20.07" cy="27.07" r="78.92" fill="#001533"/><circle cx="-32.7" cy="44.11" r="52.41" fill="#003388"/></g><g transform="translate(865 204.33)"><circle cx="0" cy="0" r="121.05" fill="#007ba7"/><circle cx="-20.07" cy="27.07" r="78.92" fill="#001533"/><circle cx="-32.7" cy="44.11" r="52.41" fill="#003388"/></g><g transform="translate(661.7 725.72)"><circle cx="0" cy="0" r="105.98" fill="#003388"/><circle cx="-25.99" cy="0.96" r="73.47" fill="#001533"/><circle cx="-45.65" cy="1.69" r="48.88" fill="#02050a"/></g><g transform="translate(-88.3 725.72)"><circle cx="0" cy="0" r="105.98" fill="#003388"/><circle cx="-25.99" cy="0.96" r="73.47" fill="#001533"/><circle cx="-45.65" cy="1.69" r="48.88" fill="#02050a"/></g><g transform="translate(661.7 -24.28)"><circle cx="0" cy="0" r="105.98" fill="#003388"/><circle cx="-25.99" cy="0.96" r="73.47" fill="#001533"/><circle cx="-45.65" cy="1.69" r="48.88" fill="#02050a"/></g><g transform="translate(-88.3 -24.28)"><circle cx="0" cy="0" r="105.98" fill="#003388"/><circle cx="-25.99" cy="0.96" r="73.47" fill="#001533"/><circle cx="-45.65" cy="1.69" r="48.88" fill="#02050a"/></g><g transform="translate(113.18 618.24)"><circle cx="0" cy="0" r="108.02" fill="#02050a"/><circle cx="-5.19" cy="28.41" r="71.93" fill="#001533"/><circle cx="-8.38" cy="45.88" r="49.72" fill="#007ba7"/></g><g transform="translate(160.73 596.64)"><circle cx="0" cy="0" r="123.01" fill="#007ba7"/><circle cx="24.2" cy="-17.99" r="85.31" fill="#003388"/><circle cx="43.18" cy="-32.09" r="55.76" fill="#001533"/></g><g transform="translate(518.62 443.17)"><circle cx="0" cy="0" r="103.67" fill="#001533"/><circle cx="-19.31" cy="-21.2" r="67.82" fill="#02050a"/><circle cx="-31.64" cy="-34.74" r="44.93" fill="#003388"/></g><g transform="translate(470.32 446.23)"><circle cx="0" cy="0" r="120.8" fill="#003388"/><circle cx="-16.13" cy="28.69" r="79.66" fill="#02050a"/><circle cx="-25.55" cy="45.45" r="55.63" fill="#001533"/></g><g transform="translate(635.19 730.95)"><circle cx="0" cy="0" r="118.01" fill="#007ba7"/><circle cx="-28.49" cy="-1.13" r="82.37" fill="#02050a"/><circle cx="-51.48" cy="-2.04" r="53.61" fill="#001533"/></g><g transform="translate(-114.81 730.95)"><circle cx="0" cy="0" r="118.01" fill="#007ba7"/><circle cx="-28.49" cy="-1.13" r="82.37" fill="#02050a"/><circle cx="-51.48" cy="-2.04" r="53.61" fill="#001533"/></g><g transform="translate(635.19 -19.05)"><circle cx="0" cy="0" r="118.01" fill="#007ba7"/><circle cx="-28.49" cy="-1.13" r="82.37" fill="#02050a"/><circle cx="-51.48" cy="-2.04" r="53.61" fill="#001533"/></g><g transform="translate(-114.81 -19.05)"><circle cx="0" cy="0" r="118.01" fill="#007ba7"/><circle cx="-28.49" cy="-1.13" r="82.37" fill="#02050a"/><circle cx="-51.48" cy="-2.04" r="53.61" fill="#001533"/></g><g transform="translate(480.71 163.04)"><circle cx="0" cy="0" r="113.14" fill="#001533"/><circle cx="0.86" cy="31.13" r="74.21" fill="#02050a"/><circle cx="1.37" cy="49.75" r="50.93" fill="#003388"/></g><g transform="translate(551.62 167.11)"><circle cx="0" cy="0" r="115.96" fill="#003388"/><circle cx="-3.93" cy="31.1" r="76.77" fill="#02050a"/><circle cx="-6.3" cy="49.86" r="53.14" fill="#007ba7"/></g></svg>